<?xml version="1.0" encoding="utf-8"?>
<!-- Generator: Adobe Illustrator 22.0.0, SVG Export Plug-In . SVG Version: 6.00 Build 0)  -->
<svg version="1.1" id="Calque_1" xmlns="http://www.w3.org/2000/svg" xmlns:xlink="http://www.w3.org/1999/xlink" x="0px" y="0px"
	 viewBox="0 0 84.4 84.4" style="enable-background:new 0 0 84.4 84.4;" xml:space="preserve">
<style type="text/css">
	.st0{fill:#FFFFFF;}
</style>
<path class="st0" d="M0,42.2C0,18.9,18.9,0,42.2,0l0,0c23.3,0,42.2,18.9,42.2,42.2l0,0c0,23.3-18.9,42.2-42.2,42.2l0,0
	C18.9,84.4,0,65.5,0,42.2L0,42.2z M7.3,42.2C7.4,61.5,23,77,42.2,77.1l0,0C61.5,77,77,61.5,77.1,42.2l0,0C77,23,61.5,7.4,42.2,7.3
	l0,0C23,7.4,7.4,23,7.3,42.2L7.3,42.2z"/>
<path class="st0" d="M42.2,64.2c-5.6,0-11.3-2.2-15.6-6.4l0,0c-4.3-4.3-6.4-9.9-6.4-15.5l0,0c0-5.6,2.1-11.3,6.5-15.6l0,0
	c4.3-4.3,9.9-6.5,15.6-6.4l0,0c5.6,0,11.3,2.2,15.6,6.4l0,0l-5.2,5.2c-2.9-2.9-6.6-4.3-10.4-4.3l0,0c-3.8,0-7.5,1.4-10.4,4.3l0,0
	c-2.9,2.9-4.3,6.6-4.3,10.4l0,0c0,3.8,1.4,7.5,4.3,10.4l0,0c2.9,2.9,6.6,4.3,10.4,4.3l0,0c3.8,0,7.5-1.4,10.4-4.3l0,0l0,0l5.2,5.2
	C53.5,62.1,47.8,64.2,42.2,64.2L42.2,64.2C42.2,64.2,42.2,64.2,42.2,64.2L42.2,64.2z"/>
</svg>
