<svg xmlns="http://www.w3.org/2000/svg" viewBox="0 0 65.91 53.44"><defs><style>.cls-1{fill:#fff;stroke:#fff;stroke-miterlimit:10;stroke-width:0.25px;}</style></defs><title>film</title><g id="Calque_2" data-name="Calque 2"><g id="Calque_1-2" data-name="Calque 1"><path class="cls-1" d="M45.2,46.67H31.71v1.66A1.67,1.67,0,0,1,33.37,50v3.32H.13V50a1.67,1.67,0,0,1,1.66-1.66V10.93A1.67,1.67,0,0,1,.13,9.27V5.94h10V.13H23.4V5.94h10V9.27a1.67,1.67,0,0,1-1.66,1.66v1.66H62.55a3.25,3.25,0,0,1,3.24,3.24V33.45a3.25,3.25,0,0,1-3.24,3.24H53.32a5,5,0,0,0-4.86,6.11A3.26,3.26,0,0,1,45.2,46.67ZM1.79,9.27H31.71V7.61H1.79Zm0,42.39H31.71V50H1.79ZM3.45,45v3.33H30V10.93H3.45v3.33m0,1.66V43.35M21.73,1.79h-10V5.94h10ZM53.32,35h9.23a1.58,1.58,0,0,0,1.58-1.58V15.83a1.58,1.58,0,0,0-1.58-1.58H31.71V45H45.28a1.58,1.58,0,0,0,1.54-1.92A6.67,6.67,0,0,1,53.32,35Z"/><path class="cls-1" d="M37.09,17H34.43a.38.38,0,0,0-.4.4v1.86a.38.38,0,0,0,.4.4h2.66a.38.38,0,0,0,.4-.4V17.38A.38.38,0,0,0,37.09,17Z"/><path class="cls-1" d="M43,17H40.37a.38.38,0,0,0-.4.4v1.86a.38.38,0,0,0,.4.4H43a.38.38,0,0,0,.4-.4V17.38A.38.38,0,0,0,43,17Z"/><path class="cls-1" d="M37.09,39.54H34.43a.38.38,0,0,0-.4.4V41.8a.38.38,0,0,0,.4.4h2.66a.38.38,0,0,0,.4-.4V39.94A.38.38,0,0,0,37.09,39.54Z"/><path class="cls-1" d="M43,39.54H40.37a.38.38,0,0,0-.4.4V41.8a.38.38,0,0,0,.4.4H43a.38.38,0,0,0,.4-.4V39.94A.38.38,0,0,0,43,39.54Z"/><path class="cls-1" d="M49,17H46.32a.38.38,0,0,0-.4.4v1.86a.38.38,0,0,0,.4.4H49a.38.38,0,0,0,.4-.4V17.38A.38.38,0,0,0,49,17Z"/><path class="cls-1" d="M54.93,17H52.26a.38.38,0,0,0-.4.4v1.86a.38.38,0,0,0,.4.4h2.66a.38.38,0,0,0,.4-.4V17.38A.38.38,0,0,0,54.93,17Z"/><path class="cls-1" d="M60.87,17H58.21a.38.38,0,0,0-.4.4v1.86a.38.38,0,0,0,.4.4h2.66a.38.38,0,0,0,.4-.4V17.38A.38.38,0,0,0,60.87,17Z"/></g></g></svg>