<?xml version="1.0" encoding="utf-8"?>
<!-- Generator: Adobe Illustrator 22.0.0, SVG Export Plug-In . SVG Version: 6.00 Build 0)  -->
<svg version="1.1" id="Calque_1" xmlns="http://www.w3.org/2000/svg" xmlns:xlink="http://www.w3.org/1999/xlink" x="0px" y="0px"
	 viewBox="0 0 35.1 30.6" style="enable-background:new 0 0 35.1 30.6;" xml:space="preserve">
<style type="text/css">
	.st0{stroke:#FFFFFF;stroke-width:0.25;stroke-miterlimit:10;}
</style>
<g id="heart">
	<g>
		<g transform="translate(-141.000000, -138.000000)">
			<g transform="translate(141.000000, 138.000000)">
				<path class="st0" d="M17.5,30.1l-0.6-0.5C4.1,19.1,0.6,15.4,0.6,9.4c0-4.9,4-8.9,8.9-8.9c4.1,0,6.4,2.3,8,4.1
					c1.6-1.8,3.9-4.1,8-4.1c4.9,0,8.9,4,8.9,8.9c0,6-3.5,9.7-16.3,20.1L17.5,30.1L17.5,30.1z M9.5,2.4c-3.9,0-7,3.1-7,7
					c0,5.1,3.2,8.6,15.1,18.2c11.8-9.6,15-13,15-18.2c0-3.9-3.2-7.1-7.1-7.1c-3.6,0-5.4,2.1-6.9,3.8l-1.1,1.2l-1.1-1.2
					C15,4.5,13.1,2.4,9.5,2.4L9.5,2.4z"/>
			</g>
		</g>
	</g>
</g>
</svg>
