<svg xmlns="http://www.w3.org/2000/svg" viewBox="0 0 54.62 67.29"><defs><style>.cls-1{fill:#fff;}</style></defs><title>lens</title><g id="Calque_2" data-name="Calque 2"><g id="Calque_1-2" data-name="Calque 1"><g id="Calque_2-2" data-name="Calque 2"><path class="cls-1" d="M28.43,20.46C.8,20.46,0,11.33,0,10.29,0,10.19.31,0,26.73,0c24,0,27.3,7.1,27.73,8.52a5.56,5.56,0,0,1-1.06,4.61C51.14,16.47,45,20.46,28.43,20.46ZM26.73,2.32c-23.36,0-24.41,7.89-24.41,8S3,18.13,28.43,18.13c16,0,21.2-3.81,22.89-6.07a3.8,3.8,0,0,0,.95-2.79C52.21,9.12,49.91,2.32,26.73,2.32Z"/><path class="cls-1" d="M28.43,26.19C.8,26.19,0,17.07,0,16H2.32c0,.08.71,7.84,26.11,7.84,15.1,0,23.76-3.38,23.76-9.28H54.5C54.5,18.93,51.12,26.19,28.43,26.19Z"/><path class="cls-1" d="M28.43,42.37C.8,42.37,0,33.25,0,32.21H2.32c0,.08.71,7.84,26.11,7.84,15.1,0,23.76-3.38,23.76-9.28H54.5C54.5,35.11,51.12,42.37,28.43,42.37Z"/><path class="cls-1" d="M28,20.46c-20.53,0-21.12-6.9-21.12-7.68,0-.32.23-7.81,19.82-7.81,16.18,0,19.82,4.42,20.64,6.31a4.13,4.13,0,0,1-.71,3.63C45,17.44,40.4,20.46,28,20.46ZM9.24,12.77c0,.2,1,5.36,18.8,5.36,11.37,0,15.18-2.61,16.44-4.17a2.58,2.58,0,0,0,.74-1.85c-.19-.43-2.54-4.84-18.48-4.84C10.47,7.28,9.27,12.58,9.24,12.77Z"/><rect class="cls-1" x="52.18" y="8.86" width="2.32" height="32.35"/><path class="cls-1" d="M28.43,52.55C.32,52.55,0,42.8,0,42.39V10.29H2.32V42.39c0,.08,1.12,7.84,26.11,7.84,22,0,23.76-7.1,23.76-9.28H54.5C54.5,44.44,52,52.55,28.43,52.55Z"/><path class="cls-1" d="M28.3,67.29c-20.85,0-24.39-7-24.53-7.32l-.11-.24V47H6v12.2c.7,1,5.1,5.82,22.32,5.82,15.1,0,19.39-5.43,19.84-6.08V47.34h2.32V59.09C50.46,60.82,44.92,67.29,28.3,67.29Zm19.89-8.47Z"/></g></g></g></svg>