<?xml version="1.0" encoding="utf-8"?>
<!-- Generator: Adobe Illustrator 22.0.0, SVG Export Plug-In . SVG Version: 6.00 Build 0)  -->
<svg version="1.1" id="Calque_1" xmlns="http://www.w3.org/2000/svg" xmlns:xlink="http://www.w3.org/1999/xlink" x="0px" y="0px"
	 viewBox="0 0 64.7 88.6" style="enable-background:new 0 0 64.7 88.6;" xml:space="preserve">
<style type="text/css">
	.st0{fill:#FFFFFF;}
</style>
<title>location</title>
<g id="Calque_1_1_">
	<path class="st0" d="M32.3,88.6l-3.1-3.8c-0.1-0.1-0.3-0.4-0.7-0.8C17.9,72.4,0,50.2,0,31.8c0.2-8.7,3.7-16.7,9.9-22.7
		c6.2-6,14.4-9.2,23-9.1c17.5,0.3,31.4,14.3,31.8,31.8c0,18.4-17.9,40.6-28.5,52.2c-0.4,0.4-0.6,0.7-0.7,0.8L32.3,88.6z M32.3,3
		C24.7,3,17.5,5.9,12,11.2C6.3,16.7,3.1,24,3,31.8C3,44.7,12.9,62.5,30.7,82c0.4,0.5,0.7,0.8,0.8,0.9l0.8,1l0.8-1
		c0.1-0.1,0.4-0.4,0.8-0.9c17.9-19.5,27.7-37.3,27.7-50.2C61.4,15.9,48.7,3.3,32.9,3C32.7,3,32.5,3,32.3,3z M32.1,52.5L32.1,52.5
		c-10.5,0-19-8.5-19-19s8.5-19,19-19s19,8.5,19,19C51.1,43.9,42.5,52.4,32.1,52.5z M32.1,17.5c-8.8,0-16,7.2-16,16
		c0,8.8,7.2,16,16,16c8.8,0,16-7.2,16-16C48.1,24.6,40.9,17.5,32.1,17.5z"/>
</g>
</svg>
