<svg xmlns="http://www.w3.org/2000/svg" xmlns:xlink="http://www.w3.org/1999/xlink" viewBox="0 0 22.94 25.5"><defs><style>.cls-1,.cls-5{fill:none;}.cls-2{opacity:0.6;}.cls-3{clip-path:url(#clip-path);}.cls-4{fill:#fff;}.cls-5{stroke:#fff;stroke-miterlimit:10;}</style><clipPath id="clip-path"><circle class="cls-1" cx="11.47" cy="11.47" r="10.97"/></clipPath></defs><title>Fichier 10</title><g id="Calque_2" data-name="Calque 2"><g id="Calque_2-2" data-name="Calque 2"><circle class="cls-2" cx="11.47" cy="11.47" r="10.97"/><g class="cls-3"><path class="cls-4" d="M11.64,3.82l.14.08Z"/><path class="cls-4" d="M11.22,3.87l.08-.05Z"/><path class="cls-4" d="M11,5.33V7.85a.45.45,0,0,0,.9,0V5.33l-.45-.46Z"/><path class="cls-4" d="M13.6,5.72,11.79,3.91h0l-.14-.08a.4.4,0,0,0-.34,0l-.08.05-.07,0L9.34,5.72a.47.47,0,0,0,0,.64.45.45,0,0,0,.32.13A.44.44,0,0,0,10,6.36l1-1,.45-.46.45.46,1,1a.45.45,0,1,0,.64-.64Z"/><path class="cls-4" d="M7.85,11H5.33l1-1a.45.45,0,0,0,0-.64.47.47,0,0,0-.64,0L3.91,11.15h0a.64.64,0,0,0-.08.14.43.43,0,0,0,0,.35.18.18,0,0,0,.05.07.16.16,0,0,0,0,.07L5.72,13.6a.45.45,0,0,0,.32.13.44.44,0,0,0,.32-.13.45.45,0,0,0,0-.64l-1-1H7.85a.45.45,0,1,0,0-.9Z"/><path class="cls-4" d="M19,11.16a.55.55,0,0,1,.09.14A.42.42,0,0,0,19,11.16Z"/><path class="cls-4" d="M17.62,11H15.09a.45.45,0,0,0,0,.9h2.53l.45-.45Z"/><path class="cls-4" d="M19.13,11.65l-.06.07Z"/><path class="cls-4" d="M19.13,11.65a.53.53,0,0,0,0-.35.55.55,0,0,0-.09-.14h0L17.22,9.34a.47.47,0,0,0-.64,0,.45.45,0,0,0,0,.64l1,1,.45.45-.45.45-1,1a.45.45,0,0,0,0,.64.46.46,0,0,0,.64,0L19,11.79a.16.16,0,0,0,0-.07Z"/><path class="cls-4" d="M18.26,19.61V16a1.36,1.36,0,0,0-1.36-1.36,1.39,1.39,0,0,0-.5.09,1.36,1.36,0,0,0-1.31-1,1.39,1.39,0,0,0-.5.1,1.35,1.35,0,0,0-1.31-1,1.33,1.33,0,0,0-.45.08V11.47a1.36,1.36,0,1,0-2.72,0V17l-.75-.5a2,2,0,0,0-2.78.47,1.36,1.36,0,0,0,.09,1.73l3.66,4,.16.14a.45.45,0,0,0-.38.43V25a.47.47,0,0,0,.46.46A.46.46,0,0,0,11,25V23.69h5.43V25a.45.45,0,1,0,.9,0V23.23a.45.45,0,0,0-.45-.45h-.19A4,4,0,0,0,18.26,19.61Zm-4.07,3.17H12.67A2.28,2.28,0,0,1,11,22.05l-3.66-4a.45.45,0,0,1,0-.58,1.14,1.14,0,0,1,1.55-.26l1.46,1a.45.45,0,0,0,.7-.38V11.47a.45.45,0,1,1,.9,0v5a.46.46,0,0,0,.46.45.45.45,0,0,0,.45-.45V14.19a.45.45,0,1,1,.9,0v2.26a.46.46,0,0,0,.46.45.45.45,0,0,0,.45-.45V15.09a.45.45,0,0,1,.9,0v1.36a.46.46,0,0,0,.46.45.45.45,0,0,0,.45-.45V16a.45.45,0,1,1,.9,0v3.61A3.17,3.17,0,0,1,14.19,22.78Z"/></g><circle class="cls-5" cx="11.47" cy="11.47" r="10.97"/></g></g></svg>