<svg xmlns="http://www.w3.org/2000/svg" viewBox="0 0 126.09 100"><defs><style>.cls-1{fill:#fff;}</style></defs><title>photo</title><g id="Calque_2" data-name="Calque 2"><g id="Calque_1-2" data-name="Calque 1"><path class="cls-1" d="M117.39,13H89.86A5.28,5.28,0,0,1,86.92,12,5.27,5.27,0,0,1,85,9.53l-.69-2h0a11,11,0,0,0-4.05-5.32A11,11,0,0,0,73.91,0H52.17a11,11,0,0,0-6.33,2.16,11,11,0,0,0-4.05,5.32h0l-.68,2h0A5.29,5.29,0,0,1,39.17,12,5.3,5.3,0,0,1,36.23,13h-8.7v-2.9a5.8,5.8,0,0,0-5.8-5.8H17.39a5.8,5.8,0,0,0-5.8,5.8V13H8.7A8.71,8.71,0,0,0,0,21.74V91.3A8.71,8.71,0,0,0,8.7,100h108.7a8.71,8.71,0,0,0,8.7-8.7V21.74A8.71,8.71,0,0,0,117.39,13Zm-100-2.9h4.35V13H17.39Zm102,83.21a2.88,2.88,0,0,1-2,.85H8.7a2.91,2.91,0,0,1-2.9-2.9V21.74a2.91,2.91,0,0,1,2.9-2.9H36.23a11,11,0,0,0,6.33-2.16,11,11,0,0,0,4.05-5.32h0l.68-2h0a5.24,5.24,0,0,1,1.94-2.45A5.27,5.27,0,0,1,52.17,5.8H73.91a5.29,5.29,0,0,1,2.94,1.07,5.29,5.29,0,0,1,1.94,2.45l.68,2h0a11,11,0,0,0,4.05,5.32,11,11,0,0,0,6.33,2.16h27.54a2.92,2.92,0,0,1,2.9,2.9V91.3A2.89,2.89,0,0,1,119.44,93.35Z"/><path class="cls-1" d="M63,31.09A26.16,26.16,0,1,0,89.2,57.25,26.16,26.16,0,0,0,63,31.09ZM78.1,72.3a21.29,21.29,0,1,1,6.24-15.06A21.21,21.21,0,0,1,78.1,72.3Z"/><path class="cls-1" d="M110.15,30.43a2.9,2.9,0,0,0-2.9-2.9h-8.7a2.9,2.9,0,1,0,0,5.8h8.7A2.9,2.9,0,0,0,110.15,30.43Z"/></g></g></svg>