<?xml version="1.0" encoding="utf-8"?>
<!-- Generator: Adobe Illustrator 22.0.0, SVG Export Plug-In . SVG Version: 6.00 Build 0)  -->
<svg version="1.1" id="Calque_1" xmlns="http://www.w3.org/2000/svg" xmlns:xlink="http://www.w3.org/1999/xlink" x="0px" y="0px"
	 viewBox="0 0 255.4 138.2" style="enable-background:new 0 0 255.4 138.2;" xml:space="preserve">
<style type="text/css">
	.st0{opacity:0.5;}
	.st1{fill:#FFFFFF;}
	.st2{font-family:'Montserrat-Medium';}
	.st3{font-size:18px;}
</style>
<path class="st0" d="M248.4,82.7c0,0,0.1-0.1,0.1-0.1c6-6.9,6.9-17.3,1.5-25.2v0c-2.1-3-4.8-5.3-7.8-6.8L176.7,5.1
	c-9.4-6.5-22.2-4.2-28.7,5.2v0c-6.5,9.4-4.2,22.2,5.2,28.7l13.8,9.6h-144c-11.4,0-20.6,9.2-20.6,20.6v0c0,11.4,9.2,20.6,20.6,20.6
	H166l-13.1,8.9c-9.4,6.4-11.8,19.3-5.4,28.7v0c6.4,9.4,19.3,11.8,28.7,5.4l67.3-46c0.9-0.6,1.8-1.2,2.7-2c0.1-0.1,0.1-0.1,0.2-0.2
	c0.3-0.3,0.7-0.6,1-0.9C247.7,83.4,248.1,83,248.4,82.7z"/>
<text transform="matrix(1 0 0 1 44.3434 74.4392)" class="st1 st2 st3">Swipe to descover</text>
</svg>
